<svg width="922" height="761" viewBox="0 0 922 761" fill="none" xmlns="http://www.w3.org/2000/svg">
<path d="M536.17 81.4673C459.088 75.6072 453.341 133.494 460.102 163.17L761.558 413.35L897.917 369.963L536.17 81.4673Z" fill="#7856C9" stroke="#7856C9" stroke-width="5"/>
<path d="M462.356 669.165L761.558 413.35L899.044 371.09C931.725 394.192 916.512 435.701 907.496 449.976L532.789 754.812C458.862 754.812 455.031 697.714 462.356 669.165Z" fill="#7132AB" stroke="#7132AB" stroke-width="5"/>
<path d="M181.006 120.554C220.173 91.8871 359.706 13.8538 492.506 5.05383C501.571 8.06285 502.323 11.1666 499.506 18.0538L417.506 74.5538H458.006C472.779 76.1894 469.994 81.422 463.506 90.5538L353.006 143.054L386.506 154.054C395.38 158.075 395.372 161.582 392.506 168.554C344.006 206.554 323.606 227.554 234.006 285.554L280.506 289.054C288.012 291.416 289.916 294.209 289.506 301.554C289.506 313.554 252.606 430.354 225.006 455.554L350.006 692.054C325.43 685.488 199.368 589.318 163.506 538.554C144.391 510.434 142.03 508.105 135.006 488.554C124.506 442.554 130.006 448.554 127.506 417.554L130.006 374.054C134.006 318.554 131.506 312.054 143.506 281.054C165.844 241.618 179.588 221.657 225.006 179.554L339.006 95.5538L458.006 23.5538C359.76 68.3836 303.226 78.5451 208.506 158.554C159.363 197.276 140.761 213.359 111.506 268.054C91.7072 314.064 89.1753 382.155 91 428.797L95.2559 476.554C102.34 510.083 110.27 524.719 127.506 547.554C158.023 588.267 175.769 604.678 207.506 633.054C246.338 665.313 270.486 679.771 316.506 701.054L437.006 755.054C357.506 719.427 162.878 676.351 113.006 633.054C79.1476 606.811 63.8999 587.111 40.0059 547.554C20.4947 513.643 8.41705 496.01 5.00586 442.554L10.0059 294.054C10.1651 282.781 12.792 280.469 21.5059 282.554L53.0059 301.554C38.4126 276.514 30.3259 262.511 40.0059 246.554L75.0059 201.054C82.556 191.818 148.42 94.9092 158.566 95.0623C157.074 93.2308 170.558 89.6522 176.006 95.5538L181.006 120.554Z" fill="#007BFF"/>
<path d="M95.2559 476.554C90.78 453.386 82.1064 336.375 111.506 268.054C140.761 213.359 159.363 197.276 208.506 158.554C303.226 78.5451 359.76 68.3836 458.006 23.5538L339.006 95.5538L225.006 179.554C179.588 221.657 165.844 241.618 143.506 281.054C131.506 312.054 134.006 318.554 130.006 374.054L127.506 417.554C130.006 448.554 124.506 442.554 135.006 488.554C142.03 508.105 144.391 510.434 163.506 538.554C199.368 589.318 325.43 685.488 350.006 692.054L225.006 455.554C252.606 430.354 289.506 313.554 289.506 301.554C289.916 294.209 288.012 291.416 280.506 289.054L234.006 285.554C323.606 227.554 344.006 206.554 392.506 168.554C395.372 161.582 395.38 158.075 386.506 154.054L353.006 143.054L463.506 90.5538C469.994 81.422 472.778 76.1894 458.006 74.5538H417.506L499.506 18.0538C502.323 11.1666 501.571 8.06285 492.506 5.05383C359.706 13.8538 220.173 91.8871 181.006 120.554L176.006 95.5538C170.006 89.0538 154.257 94.0538 159.506 95.5538M95.2559 476.554C102.34 510.083 110.27 524.719 127.506 547.554C158.023 588.267 175.769 604.678 207.506 633.054C246.338 665.313 270.486 679.77 316.506 701.054L437.006 755.054C357.506 719.427 162.878 676.351 113.006 633.054C79.1476 606.811 63.8999 587.111 40.0059 547.554C20.4947 513.643 8.41705 496.01 5.00586 442.554L10.0059 294.054C10.1651 282.781 12.792 280.469 21.5059 282.554L53.0059 301.554C38.4126 276.514 30.3259 262.511 40.0059 246.554L75.0059 201.054C82.8566 191.45 153.757 87.0538 159.506 95.5538M95.2559 476.554L89.9981 417.554M129.255 158.554L159.506 95.5538" stroke="#007BFF" stroke-width="10"/>
<path d="M257.006 630.554C294.506 661.554 335.006 687.054 351.006 693.554L285.506 568.054L225.506 455.554C243.006 445.054 277.006 360.054 284.506 323.554L131.506 468.054C131.768 489.352 139.93 500.827 150.006 521.554C171.046 552.03 183.515 565.789 206.506 586.554L257.006 630.554Z" fill="#003772" stroke="#003772" stroke-width="10"/>
<path d="M31.0059 532.554L100.006 494.554C108.119 521.293 115.348 531.928 128.006 548.054C164.506 594.554 179.779 608.025 209.006 633.054C237.656 659.277 261.325 672.286 305.506 695.054L379.006 728.054L438.506 755.554L388.006 736.554L320.006 714.554L244.506 690.554L209.006 679.054L172.006 664.554C139.006 657.054 100.006 623.554 85.0059 608.054C74.6059 600.854 44.5059 557.054 31.0059 532.554Z" fill="#003772" stroke="#003772" stroke-width="10"/>
</svg>
